<svg xmlns="http://www.w3.org/2000/svg" viewBox="0 0 24 24" fill="none">
  <path
    d="M8.1 4.3c.7 0 1.2.6 1.2 1.3 0 .7-.5 1.2-1.2 1.2-.8 0-1.3-.5-1.3-1.2 0-.7.5-1.3 1.3-1.3Zm7.8 0c.7 0 1.2.6 1.2 1.3 0 .7-.5 1.2-1.2 1.2-.8 0-1.3-.5-1.3-1.2 0-.7.5-1.3 1.3-1.3Z"
    fill="currentColor"
  />
  <path
    d="M8.4 8.2c2.2 0 4 .6 5.1 1.6l.2.2.2-.2c1.1-1 2.9-1.6 5.1-1.6 2.8 0 4.5 1.7 4.5 4.5 0 4-3.6 6.7-9.8 6.7S3.9 16.7 3.9 12.7c0-2.8 1.7-4.5 4.5-4.5Zm0 2.2c-1.5 0-2.3.8-2.3 2.2 0 2.5 2.6 4.5 7.6 4.5s7.6-2 7.6-4.5c0-1.4-.8-2.2-2.3-2.2-1.8 0-3.1.7-3.8 1.9-.2.3-.5.5-.9.5s-.7-.2-.9-.5c-.7-1.2-2-1.9-3.8-1.9Z"
    fill="currentColor"
  />
  <path
    d="M8.3 13.1c.5 0 .9.4.9.9 0 .8 1 1.4 2.8 1.4s2.8-.6 2.8-1.4c0-.5.4-.9.9-.9s.9.4.9.9c0 2-2 3.2-4.6 3.2s-4.6-1.2-4.6-3.2c0-.5.4-.9.9-.9Z"
    fill="currentColor"
  />
</svg>
